<svg width="70" height="70" viewBox="0 0 70 70" fill="none" xmlns="http://www.w3.org/2000/svg">
<g clip-path="url(#clip0_3152_114)">
<path d="M47.6278 50.0315C47.3676 50.0315 47.1074 49.9325 46.9093 49.7337L21.408 24.2275C21.0111 23.8306 21.0111 23.1875 21.408 22.7906C21.8049 22.3937 22.4481 22.3937 22.8443 22.7906L48.3448 48.2975C48.7417 48.6944 48.7417 49.3375 48.3448 49.7344C48.1474 49.9318 47.8872 50.0315 47.6278 50.0315Z" fill="#466EB6"/>
<path d="M22.1265 50.0315C21.8663 50.0315 21.6068 49.9325 21.408 49.7344C21.0111 49.3375 21.0111 48.6944 21.408 48.2975L46.9149 22.7906C47.3118 22.3937 47.9542 22.3937 48.3511 22.7906C48.748 23.1875 48.748 23.8306 48.3511 24.2275L22.8443 49.7344C22.6462 49.9318 22.3867 50.0315 22.1265 50.0315Z" fill="#466EB6"/>
<path d="M34.8825 69.7566C15.6479 69.7566 0 54.1122 0 34.8825C0 15.6486 15.6479 0 34.8825 0C54.1108 0 69.7537 15.6486 69.7537 34.8825C69.7537 54.1115 54.1108 69.7566 34.8825 69.7566ZM34.8825 2.03123C16.7681 2.03123 2.03193 16.7681 2.03193 34.8818C2.03193 52.9913 16.7688 67.724 34.8825 67.724C52.9905 67.724 67.7218 52.9906 67.7218 34.8818C67.7225 16.7681 52.9905 2.03123 34.8825 2.03123Z" fill="#466EB6"/>
</g>
<defs>
<clipPath id="clip0_3152_114">
<rect width="70" height="70" fill="white"/>
</clipPath>
</defs>
</svg>
