<svg width="1920" height="848" viewBox="0 0 1920 848" fill="none" xmlns="http://www.w3.org/2000/svg">
<path opacity="0.61" d="M1921 399.34V27.6525C1849.59 45.7557 1791.89 96.3046 1766.15 161.933C1745.37 126.059 1705.46 101.761 1659.67 101.761C1624.48 101.761 1592.83 116.104 1570.59 138.963C1537.4 57.6279 1454.96 0 1358.47 0C1235.77 0 1135.78 93.1338 1130.9 209.754C1123.61 208.168 1116 207.283 1108.2 207.283C1072.86 207.283 1041.75 224.539 1023.46 250.753C1003.72 187.742 942.829 141.839 870.765 141.839C818.791 141.839 772.656 165.694 743.538 202.638C725.023 126.944 654.265 70.5693 569.754 70.5693C480.135 70.5693 405.958 133.949 393.127 216.538C374.574 192.425 344.764 176.755 311.114 176.755C282.88 176.755 257.296 187.779 238.857 205.624C227.295 149.545 175.782 107.255 113.974 107.255C92.347 107.255 71.9493 112.454 54.1253 121.597C54.8551 116.915 55.2393 112.122 55.2393 107.255C55.2393 69.4632 32.8824 36.6857 0.153809 20.3891V211.855V399.34H1921V399.34Z" fill="#72B3E3"/>
<path d="M1921 656.287V360.589C1900.49 351.667 1877.75 346.652 1853.74 346.652C1812.21 346.652 1774.3 361.585 1745.49 386.103C1720.4 290.536 1630.28 219.745 1522.92 219.745C1471.75 219.745 1424.46 235.858 1386.32 263.031C1386.55 259.565 1386.74 256.062 1386.74 252.523C1386.74 166.026 1313.68 95.8989 1223.56 95.8989C1133.44 95.8989 1060.38 166.026 1060.38 252.523C1060.38 269.631 1063.3 286.112 1068.56 301.523C1040.67 280.175 1005.33 267.345 966.876 267.345C906.298 267.345 853.479 299.053 825.321 346.099C805.692 328.733 779.455 318.115 750.645 318.115C724.408 318.115 700.284 326.927 681.346 341.638C652.613 297.173 601.33 267.566 542.826 267.566C464.846 267.566 399.734 320.143 383.716 390.38C341.614 341.011 277.655 309.487 206.013 309.487C115.587 309.487 37.3767 359.704 0 432.67V656.287H1921Z" fill="#7AB8E5"/>
<path d="M1921 847.975V425.628C1840.33 462.977 1782.25 538.082 1771.61 627.049C1739.69 588.483 1690.4 563.706 1635.09 563.706C1579.15 563.706 1529.41 589.036 1497.53 628.34C1467.26 567.062 1402.22 524.698 1326.89 524.698C1326.78 524.698 1326.62 524.698 1326.51 524.698C1326.74 521.122 1326.89 517.545 1326.89 513.895C1326.89 421.499 1248.83 346.579 1152.57 346.579C1057.53 346.579 980.322 419.581 978.362 510.319C929.462 457.926 858.473 424.928 779.417 424.928C675.777 424.928 586.003 481.634 541.751 564.481C518.434 543.723 487.241 531.04 452.938 531.04C422.706 531.04 394.856 540.921 372.73 557.475C344.457 501.691 284.877 463.272 215.925 463.272C181.813 463.272 150.006 472.711 123.117 488.971C113.014 424.19 64.2283 371.577 0.0771484 353.436V847.938H1921V847.975Z" fill="#82BCE7"/>
</svg>
