<svg width="146" height="143" viewBox="0 0 146 143" fill="none" xmlns="http://www.w3.org/2000/svg">
<path fill-rule="evenodd" clip-rule="evenodd" d="M94.5078 50.434C90.2537 46.2677 84.834 43.4303 78.9338 42.2809C73.0336 41.1313 66.9177 41.7212 61.36 43.9761C55.802 46.231 51.0515 50.0494 47.7093 54.9486C44.3671 59.8479 42.5832 65.6078 42.5832 71.5C42.5832 77.3922 44.3671 83.1521 47.7093 88.0514C51.0515 92.9506 55.802 96.769 61.36 99.0239C66.9177 101.279 73.0336 101.869 78.9338 100.719C84.834 99.5697 90.2537 96.7324 94.5078 92.566C96.8833 90.239 100.735 90.239 103.111 92.566C105.486 94.8927 105.486 98.6655 103.111 100.992C97.1555 106.825 89.5678 110.798 81.3075 112.407C73.047 114.016 64.485 113.19 56.7038 110.033C48.9229 106.877 42.2723 101.531 37.593 94.672C32.914 87.813 30.4165 79.749 30.4165 71.5C30.4165 63.251 32.914 55.187 37.593 48.328C42.2723 41.4691 48.9229 36.1233 56.7038 32.9666C64.485 29.8098 73.047 28.9838 81.3075 30.5931C89.5678 32.2024 97.1555 36.1748 103.111 42.0077C105.486 44.3348 105.486 48.1073 103.111 50.434C100.735 52.761 96.8833 52.761 94.5078 50.434Z" fill="#51BFA6"/>
</svg>
