<svg width="132" height="132" viewBox="0 0 132 132" fill="none" xmlns="http://www.w3.org/2000/svg">
<path fill-rule="evenodd" clip-rule="evenodd" d="M38.5 33C38.5 29.9624 40.9624 27.5 44 27.5H71.5C83.6503 27.5 93.5 37.3497 93.5 49.5C93.5 56.0709 90.6194 61.9688 86.0519 66C90.6194 70.0312 93.5 75.9291 93.5 82.5C93.5 94.6503 83.6503 104.5 71.5 104.5H44C42.5414 104.5 41.1425 103.921 40.111 102.889C39.0794 101.858 38.5 100.459 38.5 99V33ZM71.5 60.5C77.575 60.5 82.5 55.575 82.5 49.5C82.5 43.425 77.575 38.5 71.5 38.5H49.5V60.5H71.5ZM49.5 71.5H71.5C77.575 71.5 82.5 76.425 82.5 82.5C82.5 88.575 77.575 93.5 71.5 93.5H49.5V71.5Z" fill="#51BFA6"/>
</svg>
