<svg width="124" height="28" viewBox="0 0 124 28" fill="none" xmlns="http://www.w3.org/2000/svg">
<path d="M27.62 21.14C27.3267 21.14 27.1 21.06 26.94 20.9C26.78 20.7267 26.7 20.4867 26.7 20.18V7.72C26.7 7.4 26.78 7.16 26.94 7C27.1 6.84 27.3267 6.76 27.62 6.76C27.9267 6.76 28.16 6.84 28.32 7C28.48 7.16 28.56 7.4 28.56 7.72V13.06H36.72V7.72C36.72 7.4 36.8 7.16 36.96 7C37.12 6.84 37.3533 6.76 37.66 6.76C37.9533 6.76 38.18 6.84 38.34 7C38.5 7.16 38.58 7.4 38.58 7.72V20.18C38.58 20.4867 38.5 20.7267 38.34 20.9C38.18 21.06 37.9533 21.14 37.66 21.14C37.3533 21.14 37.12 21.06 36.96 20.9C36.8 20.7267 36.72 20.4867 36.72 20.18V14.64H28.56V20.18C28.56 20.4867 28.48 20.7267 28.32 20.9C28.1733 21.06 27.94 21.14 27.62 21.14ZM42.9734 21C42.6534 21 42.4068 20.9133 42.2334 20.74C42.0601 20.5667 41.9734 20.32 41.9734 20V7.9C41.9734 7.58 42.0601 7.33333 42.2334 7.16C42.4068 6.98667 42.6534 6.9 42.9734 6.9H50.3334C50.5868 6.9 50.7801 6.96667 50.9134 7.1C51.0601 7.22 51.1334 7.4 51.1334 7.64C51.1334 7.89333 51.0601 8.08667 50.9134 8.22C50.7801 8.35333 50.5868 8.42 50.3334 8.42H43.7734V13.08H49.9134C50.1668 13.08 50.3601 13.1467 50.4934 13.28C50.6268 13.4133 50.6934 13.6 50.6934 13.84C50.6934 14.0933 50.6268 14.2867 50.4934 14.42C50.3601 14.54 50.1668 14.6 49.9134 14.6H43.7734V19.48H50.3334C50.5868 19.48 50.7801 19.5467 50.9134 19.68C51.0601 19.8 51.1334 19.9867 51.1334 20.24C51.1334 20.4933 51.0601 20.6867 50.9134 20.82C50.7801 20.94 50.5868 21 50.3334 21H42.9734ZM54.6122 21.14C54.3189 21.14 54.0922 21.06 53.9322 20.9C53.7722 20.7267 53.6922 20.4867 53.6922 20.18V7.84C53.6922 7.53333 53.7722 7.3 53.9322 7.14C54.1055 6.98 54.3389 6.9 54.6322 6.9H59.3922C60.9122 6.9 62.0789 7.27333 62.8922 8.02C63.7189 8.76667 64.1322 9.81333 64.1322 11.16C64.1322 12.52 63.7189 13.5733 62.8922 14.32C62.0789 15.0667 60.9122 15.44 59.3922 15.44H55.5522V20.18C55.5522 20.4867 55.4722 20.7267 55.3122 20.9C55.1655 21.06 54.9322 21.14 54.6122 21.14ZM55.5522 13.94H59.1522C60.1922 13.94 60.9722 13.7067 61.4922 13.24C62.0255 12.76 62.2922 12.0667 62.2922 11.16C62.2922 10.2533 62.0255 9.57333 61.4922 9.12C60.9722 8.65333 60.1922 8.42 59.1522 8.42H55.5522V13.94ZM64.7813 21.14C64.5413 21.14 64.3479 21.0867 64.2013 20.98C64.0679 20.8733 63.9879 20.7267 63.9613 20.54C63.9346 20.3533 63.9746 20.1467 64.0813 19.92L69.5413 7.56C69.6613 7.28 69.8146 7.08 70.0013 6.96C70.1879 6.82667 70.3946 6.76 70.6213 6.76C70.8479 6.76 71.0479 6.82667 71.2213 6.96C71.4079 7.08 71.5679 7.28 71.7013 7.56L77.1613 19.92C77.2679 20.1467 77.3079 20.36 77.2813 20.56C77.2679 20.7467 77.1946 20.8933 77.0613 21C76.9279 21.0933 76.7413 21.14 76.5013 21.14C76.2346 21.14 76.0213 21.0733 75.8613 20.94C75.7013 20.7933 75.5613 20.5867 75.4413 20.32L74.0213 17L74.8813 17.48H66.3213L67.1813 17L65.7613 20.32C65.6413 20.6133 65.5079 20.8267 65.3613 20.96C65.2146 21.08 65.0213 21.14 64.7813 21.14ZM70.5813 9L67.4613 16.38L66.9813 15.96H74.2213L73.7613 16.38L70.6213 9H70.5813ZM82.4863 21.14C82.1796 21.14 81.9463 21.06 81.7863 20.9C81.6263 20.7267 81.5462 20.4867 81.5462 20.18V8.48H77.1663C76.9129 8.48 76.7129 8.41333 76.5663 8.28C76.4196 8.13333 76.3462 7.93333 76.3462 7.68C76.3462 7.42667 76.4196 7.23333 76.5663 7.1C76.7129 6.96667 76.9129 6.9 77.1663 6.9H87.7863C88.0529 6.9 88.2529 6.96667 88.3863 7.1C88.5329 7.23333 88.6063 7.42667 88.6063 7.68C88.6063 7.93333 88.5329 8.13333 88.3863 8.28C88.2529 8.41333 88.0529 8.48 87.7863 8.48H83.4063V20.18C83.4063 20.4867 83.3263 20.7267 83.1663 20.9C83.0196 21.06 82.7929 21.14 82.4863 21.14ZM91.1747 21.14C90.8814 21.14 90.6547 21.06 90.4947 20.9C90.3347 20.7267 90.2547 20.4867 90.2547 20.18V7.72C90.2547 7.4 90.3347 7.16 90.4947 7C90.6547 6.84 90.8814 6.76 91.1747 6.76C91.4814 6.76 91.7147 6.84 91.8747 7C92.0347 7.16 92.1147 7.4 92.1147 7.72V20.18C92.1147 20.4867 92.0347 20.7267 91.8747 20.9C91.728 21.06 91.4947 21.14 91.1747 21.14ZM99.8691 21.14C99.5624 21.14 99.3291 21.06 99.1691 20.9C99.0091 20.7267 98.9291 20.4867 98.9291 20.18V8.48H94.5491C94.2957 8.48 94.0957 8.41333 93.9491 8.28C93.8024 8.13333 93.7291 7.93333 93.7291 7.68C93.7291 7.42667 93.8024 7.23333 93.9491 7.1C94.0957 6.96667 94.2957 6.9 94.5491 6.9H105.169C105.436 6.9 105.636 6.96667 105.769 7.1C105.916 7.23333 105.989 7.42667 105.989 7.68C105.989 7.93333 105.916 8.13333 105.769 8.28C105.636 8.41333 105.436 8.48 105.169 8.48H100.789V20.18C100.789 20.4867 100.709 20.7267 100.549 20.9C100.402 21.06 100.176 21.14 99.8691 21.14ZM108.558 21.14C108.264 21.14 108.038 21.06 107.878 20.9C107.718 20.7267 107.638 20.4867 107.638 20.18V7.72C107.638 7.4 107.718 7.16 107.878 7C108.038 6.84 108.264 6.76 108.558 6.76C108.864 6.76 109.098 6.84 109.258 7C109.418 7.16 109.498 7.4 109.498 7.72V20.18C109.498 20.4867 109.418 20.7267 109.258 20.9C109.111 21.06 108.878 21.14 108.558 21.14ZM117.492 21.18C116.865 21.18 116.259 21.1267 115.672 21.02C115.085 20.9267 114.532 20.78 114.012 20.58C113.492 20.38 113.025 20.1333 112.612 19.84C112.439 19.72 112.312 19.5733 112.232 19.4C112.165 19.2267 112.145 19.06 112.172 18.9C112.212 18.7267 112.285 18.58 112.392 18.46C112.512 18.34 112.652 18.2667 112.812 18.24C112.972 18.2133 113.145 18.2667 113.332 18.4C113.945 18.8133 114.585 19.1133 115.252 19.3C115.932 19.4867 116.679 19.58 117.492 19.58C118.665 19.58 119.525 19.3667 120.072 18.94C120.632 18.5133 120.912 17.9533 120.912 17.26C120.912 16.6867 120.712 16.24 120.312 15.92C119.912 15.5867 119.239 15.3267 118.292 15.14L116.172 14.7C114.919 14.4333 113.979 13.9933 113.352 13.38C112.739 12.7667 112.432 11.9467 112.432 10.92C112.432 10.2933 112.559 9.72667 112.812 9.22C113.065 8.7 113.425 8.25333 113.892 7.88C114.359 7.50667 114.905 7.22 115.532 7.02C116.172 6.82 116.879 6.72 117.652 6.72C118.479 6.72 119.252 6.83333 119.972 7.06C120.705 7.28667 121.365 7.62 121.952 8.06C122.112 8.18 122.219 8.32667 122.272 8.5C122.325 8.66 122.332 8.82 122.292 8.98C122.265 9.14 122.192 9.27333 122.072 9.38C121.965 9.48667 121.825 9.54667 121.652 9.56C121.492 9.57333 121.312 9.51333 121.112 9.38C120.579 9.00667 120.032 8.74 119.472 8.58C118.912 8.40667 118.299 8.32 117.632 8.32C116.952 8.32 116.359 8.42667 115.852 8.64C115.359 8.85333 114.972 9.15333 114.692 9.54C114.425 9.91333 114.292 10.3533 114.292 10.86C114.292 11.4733 114.479 11.9533 114.852 12.3C115.225 12.6467 115.852 12.9133 116.732 13.1L118.832 13.52C120.165 13.8 121.152 14.2333 121.792 14.82C122.445 15.3933 122.772 16.1667 122.772 17.14C122.772 17.7533 122.645 18.3067 122.392 18.8C122.152 19.2933 121.805 19.72 121.352 20.08C120.899 20.4267 120.345 20.7 119.692 20.9C119.039 21.0867 118.305 21.18 117.492 21.18Z" fill="#252E3E"/>
<path d="M13.3145 5.47579V1.56954C13.3145 1.25704 13.0801 0.944544 12.7676 0.866419L10.4238 0.0851695C10.1895 -0.0710805 9.95508 0.00704454 9.7207 0.163295C9.48633 0.319545 9.4082 0.55392 9.4082 0.788295V5.47579H9.17383C4.95508 5.47579 1.5957 8.83517 1.5957 13.0539V20.0852C1.5957 20.7102 1.83008 21.257 2.29883 21.6477C2.61133 21.882 3.00195 21.9602 3.39258 21.9602C3.70508 21.9602 3.93945 21.882 4.25195 21.7258L10.0332 18.6008C10.7363 18.2102 11.4395 17.8977 12.1426 17.6633C13.7832 14.2258 14.4082 9.92892 13.8613 6.02267C13.7832 5.78829 13.5488 5.55392 13.3145 5.47579Z" fill="#252E3E"/>
<path d="M23.002 6.02267C22.6895 5.71017 22.2988 5.4758 21.8301 5.4758H19.5645V2.35079C19.5645 2.11642 19.4082 1.88204 19.252 1.72579C19.0176 1.56954 18.7832 1.49142 18.5488 1.64767L16.2051 2.42892C15.8926 2.50704 15.6582 2.81954 15.6582 3.13204V5.63205C15.502 5.7883 15.4238 6.02267 15.4238 6.25705C15.8926 9.8508 15.4238 13.8352 14.0957 17.1164C14.6426 16.9602 15.2676 16.882 15.8145 16.8039C18.4707 16.4914 20.6582 14.7727 21.5176 12.2727L23.1582 7.27267C23.3145 6.88205 23.2363 6.4133 23.002 6.02267Z" fill="#252E3E"/>
<path d="M10.7363 20.0071L6.9082 22.1165C7.37695 22.3508 8.00195 22.5071 8.62695 22.5071C9.25195 22.5071 9.95508 22.3508 10.6582 22.0383C12.0645 21.4133 12.9238 20.2415 13.1582 18.9915L12.7676 19.1477C11.9082 19.4602 11.2832 19.7727 10.7363 20.0071Z" fill="#252E3E"/>
</svg>
