<svg width="201" height="57" viewBox="0 0 201 57" fill="none" xmlns="http://www.w3.org/2000/svg">
<path d="M68.648 18.9389V41.9149H65.24V31.5629H53.256V41.9149H49.832V18.9389H53.256V29.0829H65.24V18.9389H68.648ZM88.588 39.1469L88.572 41.9149H74.332V18.9389H88.572V21.7069H77.756V28.9869H86.46V31.6589H77.756V39.1469H88.588ZM99.7608 30.7629C100.625 30.7629 101.382 30.6509 102.033 30.4269C102.694 30.2029 103.243 29.8882 103.681 29.4829C104.129 29.0669 104.465 28.5762 104.689 28.0109C104.913 27.4349 105.025 26.8002 105.025 26.1069C105.025 24.7096 104.587 23.6109 103.713 22.8109C102.849 22.0109 101.531 21.6109 99.7608 21.6109H96.2088V30.7629H99.7608ZM99.7608 18.9389C101.233 18.9389 102.513 19.1096 103.601 19.4509C104.689 19.7922 105.59 20.2776 106.305 20.9069C107.019 21.5256 107.547 22.2776 107.889 23.1629C108.241 24.0482 108.417 25.0296 108.417 26.1069C108.417 27.1842 108.23 28.1762 107.857 29.0829C107.483 29.9789 106.934 30.7522 106.209 31.4029C105.483 32.0536 104.577 32.5602 103.489 32.9229C102.411 33.2749 101.169 33.4509 99.7608 33.4509H96.2088V41.9149H92.8008V18.9389H99.7608ZM122.79 33.3549L119.382 24.4429C119.137 23.8349 118.891 23.0669 118.646 22.1389C118.529 22.5976 118.406 23.0242 118.278 23.4189C118.161 23.8136 118.043 24.1656 117.926 24.4749L114.534 33.3549H122.79ZM129.526 41.9149H126.902C126.603 41.9149 126.358 41.8402 126.166 41.6909C125.974 41.5416 125.835 41.3496 125.75 41.1149L123.718 35.7869H113.59L111.558 41.1149C111.483 41.3176 111.345 41.5042 111.142 41.6749C110.939 41.8349 110.694 41.9149 110.406 41.9149H107.782L116.934 18.9389H120.374L129.526 41.9149ZM145.809 21.7869H138.513V41.9149H135.121V21.7869H127.793V18.9389H145.809V21.7869ZM152.537 41.9149H149.113V18.9389H152.537V41.9149ZM173.871 21.7869H166.575V41.9149H163.183V21.7869H155.855V18.9389H173.871V21.7869ZM180.6 41.9149H177.176V18.9389H180.6V41.9149ZM198.158 22.6829C198.051 22.8642 197.939 22.9976 197.822 23.0829C197.704 23.1682 197.555 23.2109 197.374 23.2109C197.182 23.2109 196.963 23.1256 196.718 22.9549C196.472 22.7736 196.163 22.5762 195.79 22.3629C195.427 22.1389 194.99 21.9416 194.478 21.7709C193.966 21.5896 193.352 21.4989 192.638 21.4989C191.966 21.4989 191.374 21.5896 190.862 21.7709C190.36 21.9416 189.939 22.1816 189.598 22.4909C189.256 22.7896 188.995 23.1469 188.814 23.5629C188.643 23.9682 188.558 24.4109 188.558 24.8909C188.558 25.5096 188.712 26.0216 189.022 26.4269C189.342 26.8322 189.758 27.1789 190.27 27.4669C190.782 27.7549 191.363 28.0056 192.014 28.2189C192.664 28.4322 193.331 28.6562 194.014 28.8909C194.696 29.1149 195.363 29.3762 196.014 29.6749C196.664 29.9736 197.246 30.3522 197.758 30.8109C198.27 31.2589 198.68 31.8136 198.99 32.4749C199.31 33.1256 199.47 33.9256 199.47 34.8749C199.47 35.8882 199.294 36.8376 198.942 37.7229C198.6 38.6082 198.099 39.3816 197.438 40.0429C196.776 40.7042 195.96 41.2269 194.99 41.6109C194.03 41.9842 192.936 42.1709 191.71 42.1709C190.974 42.1709 190.259 42.0962 189.566 41.9469C188.872 41.8082 188.216 41.6109 187.598 41.3549C186.979 41.0882 186.398 40.7736 185.854 40.4109C185.32 40.0376 184.84 39.6216 184.414 39.1629L185.39 37.5309C185.486 37.4029 185.598 37.2962 185.726 37.2109C185.864 37.1256 186.019 37.0829 186.19 37.0829C186.414 37.0829 186.67 37.2002 186.958 37.4349C187.256 37.6696 187.619 37.9309 188.046 38.2189C188.483 38.4962 189 38.7522 189.598 38.9869C190.206 39.2216 190.942 39.3389 191.806 39.3389C192.51 39.3389 193.139 39.2482 193.694 39.0669C194.248 38.8749 194.712 38.6082 195.086 38.2669C195.47 37.9149 195.763 37.4936 195.966 37.0029C196.168 36.5122 196.27 35.9682 196.27 35.3709C196.27 34.6989 196.115 34.1496 195.806 33.7229C195.496 33.2962 195.086 32.9389 194.574 32.6509C194.062 32.3629 193.48 32.1176 192.83 31.9149C192.179 31.7122 191.512 31.5042 190.83 31.2909C190.147 31.0669 189.48 30.8109 188.83 30.5229C188.179 30.2349 187.598 29.8616 187.086 29.4029C186.574 28.9336 186.163 28.3522 185.854 27.6589C185.544 26.9549 185.39 26.0909 185.39 25.0669C185.39 24.2456 185.55 23.4509 185.87 22.6829C186.19 21.9149 186.654 21.2376 187.262 20.6509C187.88 20.0536 188.638 19.5789 189.534 19.2269C190.43 18.8642 191.454 18.6829 192.606 18.6829C193.896 18.6829 195.08 18.8909 196.158 19.3069C197.246 19.7122 198.19 20.2989 198.99 21.0669L198.158 22.6829Z" fill="white"/>
<path d="M25.0313 12.4848V3.57856C25.0313 2.86606 24.5906 2.15356 24.0031 1.97544L19.5969 0.194186C19.1563 -0.162063 18.7156 0.0160615 18.275 0.372312C17.8344 0.728561 17.6875 1.26294 17.6875 1.79731V12.4848H17.2469C9.31563 12.4848 3 20.1442 3 29.7629V45.7942C3 47.2192 3.44063 48.4661 4.32188 49.3567C4.90938 49.8911 5.64375 50.0692 6.37813 50.0692C6.96563 50.0692 7.40625 49.8911 7.99375 49.5348L18.8625 42.4098C20.1844 41.5192 21.5063 40.8067 22.8281 40.2723C25.9125 32.4348 27.0875 22.6379 26.0594 13.7317C25.9125 13.1973 25.4719 12.6629 25.0313 12.4848Z" fill="white"/>
<path d="M43.2437 13.7317C42.6562 13.0192 41.9219 12.4848 41.0406 12.4848H36.7812V5.35981C36.7812 4.82544 36.4875 4.29106 36.1937 3.93481C35.7531 3.57856 35.3125 3.40044 34.8719 3.75669L30.4656 5.53794C29.8781 5.71606 29.4375 6.42856 29.4375 7.14106V12.8411C29.1437 13.1973 28.9969 13.7317 28.9969 14.2661C29.8781 22.4598 28.9969 31.5442 26.5 39.0254C27.5281 38.6692 28.7031 38.4911 29.7313 38.3129C34.725 37.6004 38.8375 33.6817 40.4531 27.9817L43.5375 16.5817C43.8312 15.6911 43.6844 14.6223 43.2437 13.7317Z" fill="white"/>
<path d="M20.1842 45.6161L12.9873 50.4254C13.8686 50.9598 15.0436 51.3161 16.2186 51.3161C17.3936 51.3161 18.7154 50.9598 20.0373 50.2473C22.6811 48.8223 24.2967 46.1504 24.7373 43.3004L24.0029 43.6567C22.3873 44.3692 21.2123 45.0817 20.1842 45.6161Z" fill="white"/>
</svg>
