<svg width="101" height="101" viewBox="0 0 101 101" fill="none" xmlns="http://www.w3.org/2000/svg">
<path d="M96.3641 39.4359C95.8391 37.8209 94.4691 36.6659 92.7901 36.4229L66.1181 32.5469L54.1901 8.37791C53.4391 6.85591 51.9181 5.90991 50.2201 5.90991C48.5231 5.90991 47.0011 6.85591 46.2491 8.37791L34.3211 32.5469L7.64911 36.4229C5.96811 36.6669 4.59911 37.8209 4.07411 39.4359C3.54911 41.0509 3.97911 42.7899 5.19511 43.9759L24.4951 62.7889L19.9201 89.4659C19.6351 91.1249 20.3001 92.7769 21.6541 93.7769C22.4341 94.3529 23.3541 94.6469 24.2801 94.6469C24.9621 94.6469 25.6471 94.4879 26.2831 94.1659L50.7731 81.7709L74.0751 94.0209C75.5781 94.8119 77.3651 94.6829 78.7381 93.6839C80.1121 92.6859 80.7871 91.0259 80.5001 89.3529L75.9431 62.7889L95.2431 43.9769C96.4591 42.7909 96.8891 41.0509 96.3641 39.4359ZM93.1501 41.8279L72.7201 61.7419L77.5431 89.8599C77.6371 90.4079 77.4241 90.9299 76.9751 91.2569C76.5261 91.5849 75.9641 91.6259 75.4721 91.3659L50.8001 78.3949L24.9291 91.4889C24.4351 91.7379 23.8791 91.6899 23.4361 91.3639C22.9931 91.0369 22.7841 90.5169 22.8771 89.9739L27.7191 61.7429L7.28911 41.8289C6.89111 41.4409 6.75611 40.8939 6.92811 40.3649C7.10011 39.8369 7.53111 39.4729 8.08111 39.3929L36.3141 35.2899L48.9401 9.70691C49.1861 9.20791 49.6651 8.91091 50.2201 8.91091C50.7761 8.91091 51.2541 9.20791 51.5001 9.70691L64.1261 35.2899L92.3591 39.3929C92.9091 39.4729 93.3391 39.8359 93.5111 40.3649C93.6831 40.8939 93.5481 41.4399 93.1501 41.8279Z" fill="#1B366D"/>
</svg>
