<svg width="100" height="100" viewBox="0 0 100 100" fill="none" xmlns="http://www.w3.org/2000/svg">
<path d="M49.8006 96.016C24.3026 96.016 3.58545 75.2988 3.58545 49.8008C3.58545 24.3028 24.3026 3.58569 49.8006 3.58569C75.2986 3.58569 96.0157 24.3028 96.0157 49.8008C96.0157 75.2988 75.2986 96.016 49.8006 96.016ZM49.8006 6.57374C25.9958 6.57374 6.5735 25.9961 6.5735 49.8008C6.5735 73.6056 25.9958 93.0279 49.8006 93.0279C73.6054 93.0279 93.0277 73.6056 93.0277 49.8008C93.0277 25.9961 73.6054 6.57374 49.8006 6.57374Z" fill="#1B366D"/>
<path d="M32.47 63.9443C27.6892 63.9443 23.9043 58.3666 23.9043 51.1953C23.9043 44.024 27.6892 38.4463 32.47 38.4463C37.2509 38.4463 41.0358 44.024 41.0358 51.1953C41.0358 58.3666 37.3505 63.9443 32.47 63.9443ZM32.47 41.4343C29.482 41.4343 26.8923 45.9164 26.8923 51.1953C26.8923 56.4742 29.482 60.9563 32.47 60.9563C35.4581 60.9563 38.0477 56.4742 38.0477 51.1953C38.0477 45.9164 35.5577 41.4343 32.47 41.4343Z" fill="#1B366D"/>
<path d="M50.9959 63.9443C46.215 63.9443 42.4302 58.3666 42.4302 51.1953C42.4302 44.024 46.215 38.4463 50.9959 38.4463C55.7768 38.4463 59.5616 44.024 59.5616 51.1953C59.5616 58.3666 55.7768 63.9443 50.9959 63.9443ZM50.9959 41.4343C48.0079 41.4343 45.4182 45.9164 45.4182 51.1953C45.4182 56.4742 48.0079 60.9563 50.9959 60.9563C53.984 60.9563 56.5736 56.4742 56.5736 51.1953C56.5736 45.9164 54.0836 41.4343 50.9959 41.4343Z" fill="#1B366D"/>
<path d="M21.0158 63.9443C20.219 63.9443 19.5218 63.2471 19.5218 62.4503V43.526L16.0357 46.2152C15.3385 46.7133 14.4421 46.6137 13.9441 45.9164C13.4461 45.2192 13.5457 44.3228 14.2429 43.8248L20.1194 39.2431C20.6174 38.8447 21.215 38.8447 21.713 39.0439C22.211 39.3427 22.5098 39.8407 22.5098 40.3388V62.3507C22.5098 63.2471 21.8126 63.9443 21.0158 63.9443Z" fill="#1B366D"/>
<path d="M66.5339 63.7449C66.2351 63.7449 65.9363 63.6453 65.7371 63.4461C65.0398 62.9481 64.8406 62.0517 65.3387 61.3545L79.8805 39.741C80.3785 39.0438 81.2749 38.8445 81.9721 39.3426C82.6693 39.8406 82.8685 40.737 82.3705 41.4342L67.7291 63.0477C67.4303 63.5457 66.9323 63.7449 66.5339 63.7449Z" fill="#1B366D"/>
<path d="M68.2271 50.1992C64.9402 50.1992 62.1514 47.51 62.1514 44.1235C62.1514 40.8367 64.8406 38.0479 68.2271 38.0479C71.5139 38.0479 74.3028 40.7371 74.3028 44.1235C74.3028 47.51 71.5139 50.1992 68.2271 50.1992ZM68.2271 41.1355C66.5338 41.1355 65.1394 42.5299 65.1394 44.2232C65.1394 45.9164 66.5338 47.3108 68.2271 47.3108C69.9203 47.3108 71.3147 45.9164 71.3147 44.2232C71.3147 42.5299 69.9203 41.1355 68.2271 41.1355Z" fill="#1B366D"/>
<path d="M80.8765 62.6494C77.5896 62.6494 74.8008 59.9602 74.8008 56.5737C74.8008 53.2869 77.49 50.498 80.8765 50.498C84.1633 50.498 86.9522 53.1873 86.9522 56.5737C86.9522 59.9602 84.2629 62.6494 80.8765 62.6494ZM80.8765 53.5857C79.1832 53.5857 77.7888 54.9801 77.7888 56.6733C77.7888 58.3666 79.1832 59.761 80.8765 59.761C82.5697 59.761 83.9641 58.3666 83.9641 56.6733C83.9641 54.8805 82.5697 53.5857 80.8765 53.5857Z" fill="#1B366D"/>
</svg>
