<svg width="100" height="96" viewBox="0 0 100 96" fill="none" xmlns="http://www.w3.org/2000/svg">
<path d="M98.2379 53.3187H82.3252L92.6357 40.1547C92.6721 40.1068 92.7074 40.0578 92.7391 40.0075C95.3646 35.8552 96.7531 31.1178 96.7531 26.3086C96.7531 12.2339 85.5028 0.783447 71.6729 0.783447C61.1146 0.783447 52.0587 7.47017 48.3748 16.9043C44.6897 7.47017 35.6315 0.783447 25.0696 0.783447C11.2456 0.783447 0 12.2339 0 26.3086C0 31.7305 1.72331 36.9669 5.02308 41.5057L47.0004 94.9061C47.3352 95.3309 47.8403 95.5786 48.376 95.5786H48.3771C48.9128 95.5786 49.4191 95.3297 49.7527 94.9037L79.513 56.9074H98.2379C99.2106 56.9074 100 56.1033 100 55.1125C100 54.1217 99.2106 53.3187 98.2379 53.3187ZM3.52415 26.3086C3.52415 14.2143 13.1897 4.37331 25.0696 4.37331C36.9495 4.37331 46.6139 14.2131 46.6139 26.3086C46.6139 27.3006 47.4021 28.1035 48.376 28.1035C49.3498 28.1035 50.138 27.3006 50.138 26.3086C50.138 14.2143 59.7989 4.37331 71.6729 4.37331C83.5587 4.37331 93.2289 14.2131 93.2289 26.3086C93.2289 30.3974 92.0519 34.4348 89.8246 37.9876L77.8167 53.3187H65.306L59.423 32.172C59.2021 31.3787 58.522 30.845 57.6668 30.8677C56.8574 30.8964 56.1702 31.484 56.0034 32.2917L48.5146 68.6032L41.4334 32.3108C41.2748 31.4959 40.5876 30.8988 39.7723 30.8665C38.9442 30.8558 38.2276 31.3775 38.0079 32.178L32.9226 50.7412H17.2166C17.0839 50.7412 16.957 50.7592 16.8325 50.7867L7.81421 39.3147C5.00781 35.4532 3.52415 30.9551 3.52415 26.3086ZM48.3736 90.9106L19.6189 54.3311H34.2606C35.0512 54.3311 35.7454 53.795 35.958 53.0184L39.4164 40.3916L46.7372 77.9153C46.9005 78.7517 47.6183 79.356 48.4558 79.3608C48.4594 79.3608 48.4617 79.3608 48.4652 79.3608C49.2981 79.3608 50.0182 78.7661 50.1897 77.9356L57.9816 40.1583L62.2775 55.6031C62.4937 56.3761 63.1844 56.9086 63.9727 56.9086H75.0032L48.3736 90.9106Z" fill="#1B366D"/>
</svg>
