<svg width="423" height="285" viewBox="0 0 423 285" fill="none" xmlns="http://www.w3.org/2000/svg">
<path d="M272.204 110.303L290.251 167.456C291.531 171.523 296.366 172.971 299.55 170.245L353.439 124.183C353.439 124.183 296.173 101.044 296.173 102.307C296.173 103.57 272.204 110.303 272.204 110.303Z" fill="#B5D1DB"/>
<path d="M414.396 0.465271C379.194 14.8846 265.598 63.0878 222.6 81.3431C216.916 83.7618 217.259 92.1885 223.106 94.1141L272.204 110.305L290.192 167.274C290.921 169.569 292.736 171.048 294.775 171.433C296.426 171.757 298.866 125.294 298.866 125.294C298.866 125.294 350.479 164.932 374.954 183.634C380.979 188.241 389.594 184.774 391.022 177.164C398.313 138.25 416.553 40.9504 422.787 7.67497C423.74 2.68365 418.979 -1.41418 414.396 0.465271Z" fill="white"/>
<path d="M294.774 171.447C296.426 171.77 298.866 125.308 298.866 125.308L383.657 42.8432C384.237 42.2886 383.538 41.3488 382.869 41.7648L272.189 110.303L290.177 167.272C290.921 169.567 292.736 171.046 294.774 171.447Z" fill="#D6E2EA"/>
<path d="M1 283.323C59.2336 283.138 136.645 249.139 152.193 183.851C158.457 157.508 152.892 129.27 132.717 110.044C107.231 85.7499 79.2449 107.949 86.1335 141.871C97.441 197.592 163.173 238.848 213.12 239.433C241.984 239.772 269.077 225.43 279.462 196.144" stroke="white" stroke-width="2" stroke-miterlimit="10" stroke-dasharray="5 5"/>
</svg>
